<svg width="1343" height="1226" viewBox="0 0 1343 1226" fill="none" xmlns="http://www.w3.org/2000/svg">
<circle cx="834" cy="806" r="164" fill="white"/>
<path d="M1030.78 149.393C1150.18 221.836 1261.85 330.929 1312.53 472.664C1362.93 614.112 1352.33 787.917 1268.72 906.745C1184.83 1025.57 1027.92 1089.43 869.289 1145.83C710.66 1202.53 550.313 1251.78 418.314 1209.69C286.6 1167.59 183.234 1033.88 108.787 890.424C34.3406 746.971 -10.9001 593.783 2.27124 439.163C15.4426 284.543 87.0259 128.491 205.854 55.7624C324.969 -16.6799 491.042 -5.79929 637.645 17.68C784.534 41.1594 911.38 76.9511 1030.78 149.393Z" fill="#623DFD"/>
<path d="M956.592 243.93C1051.65 301.601 1140.55 388.448 1180.89 501.282C1221.01 613.888 1212.58 752.251 1146.02 846.849C1079.23 941.447 954.313 992.279 828.03 1037.18C701.748 1082.32 574.098 1121.52 469.015 1088.02C364.159 1054.51 281.87 948.058 222.604 833.856C163.338 719.655 127.323 597.704 137.808 474.612C148.294 351.521 205.28 227.29 299.878 169.392C394.704 111.721 526.913 120.383 643.622 139.075C760.558 157.767 861.539 186.26 956.592 243.93Z" fill="white"/>
<rect x="388" y="310" width="477" height="551" rx="40" fill="#623DFD"/>
<rect x="420" y="401" width="422" height="380" rx="17" fill="white"/>
<ellipse cx="849" cy="819.5" rx="169" ry="168.5" fill="white"/>
<ellipse cx="848.5" cy="820" rx="149.5" ry="149" fill="#623DFD"/>
<rect x="504" y="278" width="260" height="72" rx="36" fill="white"/>
<rect x="518" y="255" width="232" height="72" rx="13" fill="url(#paint0_linear)"/>
<path fill-rule="evenodd" clip-rule="evenodd" d="M634 280C656.644 280 675 261.644 675 239C675 216.356 656.644 198 634 198C611.356 198 593 216.356 593 239C593 261.644 611.356 280 634 280ZM633.5 260C644.822 260 654 250.822 654 239.5C654 228.178 644.822 219 633.5 219C622.178 219 613 228.178 613 239.5C613 250.822 622.178 260 633.5 260Z" fill="url(#paint1_linear)"/>
<rect x="833" y="739" width="32" height="162" fill="white"/>
<rect x="768" y="836" width="32" height="162" transform="rotate(-90 768 836)" fill="white"/>
<rect x="534" y="465" width="273" height="23" rx="7" fill="#424242"/>
<rect x="534" y="553" width="273" height="23" rx="8" fill="#424242"/>
<rect x="534" y="641" width="173" height="23" rx="8" fill="#424242"/>
<rect x="445.143" y="451.653" width="36.9719" height="20" rx="6" transform="rotate(44.6134 445.143 451.653)" fill="#3BB54A"/>
<rect x="445.046" y="535.831" width="36.9719" height="20" rx="6" transform="rotate(44.6134 445.046 535.831)" fill="#3BB54A"/>
<path d="M509.549 434.036C511.815 436.453 511.693 440.25 509.276 442.517L460.708 488.051L447.029 473.461L495.596 427.926C498.014 425.66 501.811 425.782 504.077 428.2L509.549 434.036Z" fill="#3BB54A"/>
<path d="M509.453 518.213C511.719 520.631 511.597 524.428 509.179 526.694L460.612 572.229L446.933 557.639L495.5 512.104C497.917 509.837 501.714 509.96 503.981 512.377L509.453 518.213Z" fill="#3BB54A"/>
<defs>
<linearGradient id="paint0_linear" x1="634" y1="255" x2="634" y2="327" gradientUnits="userSpaceOnUse">
<stop stop-color="#623DFD"/>
<stop offset="0.9999" stop-color="#623DFD"/>
<stop offset="1" stop-color="#AEC9E4"/>
</linearGradient>
<linearGradient id="paint1_linear" x1="634" y1="198" x2="634" y2="280" gradientUnits="userSpaceOnUse">
<stop stop-color="#623DFD"/>
<stop offset="0.9999" stop-color="#623DFD"/>
<stop offset="1" stop-color="#AEC9E4"/>
</linearGradient>
</defs>
</svg>
