<svg width="512" height="654" viewBox="0 0 512 654" fill="none" xmlns="http://www.w3.org/2000/svg">
<g clip-path="url(#clip0)">
<path d="M194.977 184.465L222.19 162.399C217.258 118.094 193.931 44.3012 186.65 28.5054C176.517 6.52277 151.657 -2.5037 131.123 8.34345C110.589 19.1906 102.157 45.8042 112.289 67.7862C119.991 84.4921 164.864 155.905 194.977 184.465Z" fill="#B9D8F4"/>
<path d="M196.402 55.3917C193.528 76.1662 186.022 117.358 168.507 154.043C177.724 166.016 186.883 176.789 194.977 184.464L222.19 162.398C218.713 131.167 206.096 85.284 196.402 55.3917Z" fill="#96C8EF"/>
<path d="M200.408 144.844C201.968 151.546 193.903 155.806 189.883 150.404C187.05 146.596 184.058 142.472 180.904 138.009C160.849 109.634 145.002 82.8481 141.765 75.8244C139.614 71.1588 137.814 56.7388 150.027 49.7437C162.24 42.7486 171.3 51.8873 174.389 58.5895C177.627 65.6126 187.845 95.3731 196.682 129.673C198.071 135.068 199.309 140.121 200.408 144.844Z" fill="#FF728B"/>
<path d="M196.682 129.674C193.836 118.628 190.848 108.059 187.994 98.5624C185.231 109.507 181.747 121.234 177.383 132.983C178.541 134.651 179.714 136.327 180.903 138.01C184.057 142.472 187.05 146.597 189.883 150.405C193.902 155.808 201.968 151.546 200.408 144.844C199.309 140.121 198.071 135.068 196.682 129.674Z" fill="#FF3F62"/>
<path d="M315.882 183.298C333.57 166.08 355.99 134.886 373.012 108.745L312.088 58.9926C302.814 85.2344 289.874 130.183 286.528 161.516L315.882 183.298Z" fill="#96C8EF"/>
<path d="M325.757 172.837C341.408 155.092 359.031 130.217 373.012 108.745L312.088 58.9926C311.42 60.8838 310.731 62.8825 310.029 64.9557C310.029 64.955 306.178 123.246 325.757 172.837Z" fill="#78B9EB"/>
<path d="M309.238 144.844C307.678 151.546 315.743 155.806 319.763 150.404C322.596 146.596 325.588 142.472 328.743 138.009C348.797 109.634 364.644 82.8481 367.881 75.8244C370.032 71.1588 371.832 56.7388 359.619 49.7437C347.406 42.7486 338.346 51.8873 335.257 58.5895C332.019 65.6126 321.801 95.3731 312.965 129.673C311.574 135.068 310.337 140.121 309.238 144.844Z" fill="#FF728B"/>
<path d="M359.619 49.7437C347.406 42.7486 338.346 51.8873 335.257 58.5895C332.101 65.4358 322.313 93.8903 313.635 127.093C314.912 135.006 316.586 143.224 318.78 151.465C319.127 151.163 319.458 150.815 319.763 150.404C322.595 146.596 325.589 142.472 328.743 138.009C348.797 109.634 364.644 82.8481 367.881 75.8244C370.032 71.1595 371.832 56.7388 359.619 49.7437Z" fill="#FF3F62"/>
<path d="M310.108 64.7228C310.108 64.7228 328.599 200.527 395.73 173.502C451.273 151.141 396.901 76.2191 376.477 51.021C369.455 42.3592 359.969 36.2892 349.427 34.2473C335.623 31.5727 318.247 34.9643 310.108 64.7228Z" fill="#D1E7F8"/>
<path d="M380.621 177.015C348.421 130.058 348.132 54.4595 348.689 34.1155C335.012 31.7149 318.102 35.4926 310.107 64.7235C310.108 64.7228 325.791 179.821 380.621 177.015Z" fill="#C2DFF6"/>
<path d="M186.628 325.85C173.251 298.978 164.941 267.354 164.941 243.318C164.941 189.833 205.588 146.32 255.55 146.32C305.512 146.32 346.159 189.833 346.159 243.318C346.159 267.354 337.85 298.978 324.474 325.848C322.46 329.895 317.761 331.428 313.981 329.271C310.2 327.114 308.768 322.084 310.783 318.038C323.035 293.427 330.645 264.796 330.645 243.318C330.645 198.99 296.957 162.927 255.549 162.927C214.142 162.927 180.455 198.991 180.455 243.319C180.455 264.796 188.066 293.427 200.318 318.04C202.333 322.087 200.909 327.132 197.121 329.274C192.588 331.834 188.023 328.653 186.628 325.85Z" fill="#57565C"/>
<path d="M200.315 318.05C188.063 293.438 180.451 264.807 180.451 243.329C180.451 222.57 187.84 203.623 199.949 189.345C149.763 247.308 197.117 329.284 197.117 329.284C200.906 327.142 202.33 322.097 200.315 318.05Z" fill="#3E3D42"/>
<path d="M310.788 318.05C323.04 293.438 330.652 264.807 330.652 243.329C330.652 222.57 323.263 203.623 311.154 189.345C361.341 247.308 313.986 329.284 313.986 329.284C310.196 327.142 308.773 322.097 310.788 318.05Z" fill="#3E3D42"/>
</g>
<g clip-path="url(#clip1)">
<path d="M363.354 282.386V252.386C363.354 194.58 318.931 144.841 261.189 142.122C199.539 139.219 148.644 188.343 148.644 249.354V282.386C148.644 337.961 139.409 370.449 134.75 383.303C133.361 387.134 135.026 391.375 138.624 393.289C155.08 402.043 199.915 424.437 239.483 431.031H272.515C312.083 424.436 356.918 402.042 373.374 393.289C376.972 391.375 378.636 387.134 377.248 383.303C372.589 370.449 363.354 337.961 363.354 282.386Z" fill="#5C414B"/>
<path d="M148.644 249.354V282.386C148.644 337.959 139.41 370.446 134.751 383.301C133.358 387.144 135.059 391.391 138.668 393.309C154.02 401.467 193.894 421.392 231.224 429.423V265.87L214.708 249.354C187.237 221.883 185.377 187.188 187.193 166.984C163.644 186.676 148.644 216.254 148.644 249.354Z" fill="#503441"/>
<path d="M297.289 373.229H214.709V480.589H297.289V373.229Z" fill="#FFDECC"/>
<path d="M375.229 450.583L331.264 431.032L272.515 455.806L262.87 470.273C259.601 475.176 252.397 475.176 249.128 470.273L239.483 455.806L181.633 431.032L137.668 450.583C119.325 458.74 107.716 477.16 108.272 497.227L112.611 653.999H400.286L404.625 497.227C405.18 477.159 393.572 458.74 375.229 450.583Z" fill="#FCA29E"/>
<path d="M163.509 513.612L122.023 461.755C113.091 471.133 107.9 483.768 108.272 497.227L112.611 653.999H163.509V513.612Z" fill="#F27C6E"/>
<path d="M349.388 513.612L390.874 461.755C399.806 471.133 404.998 483.768 404.625 497.227L400.286 653.999H349.388V513.612Z" fill="#F27C6E"/>
<path d="M214.709 397.212C227.344 403.014 241.339 406.257 255.999 406.257C270.66 406.257 284.655 403.015 297.289 397.212V373.225H214.709V397.212Z" fill="#D29B6E"/>
<path d="M334.217 333.202C336.346 326.522 337.547 319.544 337.727 312.535C338.946 265.007 272.382 276.136 217.697 240.155C213.887 237.648 208.809 238.447 206.205 242.192C197.564 254.624 187.784 264.453 182.017 269.758C178.955 272.575 174.982 274.127 170.821 274.127H164.879C164.874 274.127 164.871 274.13 164.866 274.13C163.96 274.147 163.033 274.242 162.09 274.425C154.053 275.981 148.643 283.671 148.643 291.857V297.831C148.643 305.731 153.701 313.184 161.394 314.978C163.126 315.382 164.811 315.496 166.425 315.368C170.531 315.04 174.116 318.028 174.855 322.08C181.876 360.557 215.492 389.741 255.998 389.741C290.422 389.741 319.803 368.629 332.18 338.682C332.777 337.224 334.099 333.557 334.217 333.202Z" fill="#FFDECC"/>
<path d="M206.45 307.16V241.887C197.746 254.462 187.833 264.409 182.018 269.759C178.956 272.576 174.983 274.128 170.822 274.128H164.88C164.875 274.128 164.872 274.131 164.867 274.131C163.962 274.148 163.037 274.243 162.096 274.425C154.059 275.978 148.643 283.661 148.643 291.847V297.831C148.643 305.73 153.7 313.182 161.393 314.978C163.125 315.382 164.811 315.497 166.425 315.368C170.531 315.04 174.116 318.028 174.855 322.08C181.876 360.557 215.492 389.741 255.998 389.741C261.613 389.741 267.076 389.128 272.373 388.06C234.751 380.353 206.45 347.062 206.45 307.16Z" fill="#FFDECC"/>
<path d="M437.676 653.999H74.322C69.757 653.999 66.064 650.301 66.064 645.741C66.064 641.181 69.758 637.483 74.322 637.483H437.677C442.242 637.483 445.935 641.181 445.935 645.741C445.935 650.301 442.241 653.999 437.676 653.999Z" fill="#C39772"/>
<path d="M197.6 462.879L181.676 431.031L199.624 415.701C203.298 412.562 208.871 413.236 211.692 417.159L239.483 455.806L222.283 468.706C214.039 474.888 202.209 472.096 197.6 462.879Z" fill="#F27C6E"/>
<path d="M314.398 462.879L330.322 431.031L312.374 415.701C308.7 412.562 303.127 413.236 300.306 417.159L272.515 455.806L289.715 468.706C297.959 474.888 309.789 472.096 314.398 462.879Z" fill="#F27C6E"/>
<path d="M347.781 637.483H164.217C155.472 637.483 148.243 630.667 147.729 621.937L141.414 514.582C140.856 505.095 148.399 497.096 157.902 497.096H354.095C363.598 497.096 371.141 505.095 370.583 514.582L364.268 621.937C363.755 630.666 356.526 637.483 347.781 637.483Z" fill="#DBD9DC"/>
<path d="M255.999 592.064C267.401 592.064 276.644 582.821 276.644 571.419C276.644 560.017 267.401 550.774 255.999 550.774C244.597 550.774 235.354 560.017 235.354 571.419C235.354 582.821 244.597 592.064 255.999 592.064Z" fill="white"/>
</g>
<defs>
<clipPath id="clip0">
<rect x="108" width="312" height="334" fill="white"/>
</clipPath>
<clipPath id="clip1">
<rect y="142" width="512" height="512" fill="white"/>
</clipPath>
</defs>
</svg>
