<?xml version="1.0"?>
<svg xmlns="http://www.w3.org/2000/svg" xmlns:xlink="http://www.w3.org/1999/xlink" version="1.1" id="Capa_1" x="0px" y="0px" viewBox="0 0 512 512" style="enable-background:new 0 0 512 512;" xml:space="preserve" width="512px" height="512px" class="hovered-paths"><g><rect x="196.923" y="9.846" style="fill:#8D6E63" width="118.154" height="49.231" data-original="#8D6E63" class="hovered-path active-path"/><path style="fill:#D9F0FF;" d="M337.066,502.154H174.934c-20.483,0-37.088-16.605-37.088-37.087v-327.22  c0-21.751,17.633-39.385,39.385-39.385l0,0c21.751,0,39.385-17.633,39.385-39.385l0,0h78.769l0,0  c0,21.751,17.632,39.385,39.385,39.385l0,0c21.751,0,39.385,17.633,39.385,39.385v327.221  C374.154,485.549,357.549,502.154,337.066,502.154z" data-original="#D9F0FF" class=""/><rect x="137.846" y="196.923" style="fill:#623DFD" width="236.308" height="137.846" data-original="#86B1CE" class="" data-old_color="#86B1CE"/><path d="M334.769,88.615c-12.835,0-23.78-8.232-27.845-19.692h8.153c5.437,0,9.846-4.409,9.846-9.846V9.846  c0-5.437-4.409-9.846-9.846-9.846H196.923c-5.437,0-9.846,4.409-9.846,9.846v49.231c0,5.437,4.409,9.846,9.846,9.846h8.153  c-4.064,11.46-15.008,19.692-27.845,19.692C150.085,88.615,128,110.7,128,137.846v59.077v137.846v130.297  C128,490.945,149.055,512,174.934,512h162.133C362.945,512,384,490.945,384,465.066V334.769V196.923v-59.077  C384,110.7,361.915,88.615,334.769,88.615z M206.769,19.692h98.462v29.538h-9.846h-78.769h-9.846V19.692z M177.231,108.308  c23.775,0,43.668-16.941,48.241-39.385h61.056c4.575,22.443,24.468,39.385,48.241,39.385c16.288,0,29.538,13.251,29.538,29.538  v49.231H147.692v-49.231C147.692,121.559,160.943,108.308,177.231,108.308z M364.308,324.923H147.692V206.769h216.615V324.923z   M337.066,492.308H174.934c-15.021,0-27.241-12.22-27.241-27.241V384h49.231c5.437,0,9.846-4.409,9.846-9.846  s-4.409-9.846-9.846-9.846h-49.231v-19.692h216.615v120.451C364.308,480.088,352.088,492.308,337.066,492.308z" data-original="#000000" class="" style="fill:#000000" data-old_color="#000000"/><path d="M235.549,370.393c-0.246-0.601-0.551-1.171-0.906-1.702c-0.353-0.543-0.767-1.045-1.221-1.498  c-0.453-0.453-0.955-0.866-1.497-1.221c-0.532-0.364-1.103-0.66-1.703-0.906c-0.591-0.246-1.21-0.443-1.84-0.56  c-1.27-0.257-2.58-0.257-3.85,0c-0.62,0.117-1.241,0.314-1.841,0.56c-0.592,0.246-1.162,0.542-1.694,0.906  c-0.543,0.354-1.045,0.768-1.498,1.221c-0.453,0.453-0.866,0.955-1.221,1.498c-0.364,0.532-0.66,1.102-0.906,1.702  c-0.246,0.591-0.443,1.211-0.56,1.841c-0.129,0.63-0.197,1.28-0.197,1.92c0,0.639,0.068,1.29,0.197,1.92  c0.117,0.63,0.314,1.25,0.56,1.84c0.246,0.601,0.552,1.172,0.906,1.703c0.354,0.542,0.768,1.044,1.221,1.497  c0.453,0.453,0.955,0.867,1.498,1.221c0.532,0.354,1.102,0.66,1.694,0.906c0.601,0.246,1.221,0.433,1.841,0.561  c0.639,0.128,1.29,0.197,1.93,0.197c0.639,0,1.29-0.069,1.92-0.197c0.63-0.128,1.25-0.315,1.84-0.561  c0.601-0.246,1.172-0.551,1.703-0.906c0.542-0.353,1.044-0.768,1.497-1.221c0.454-0.453,0.867-0.955,1.221-1.497  c0.354-0.532,0.66-1.103,0.906-1.703c0.246-0.591,0.443-1.21,0.561-1.84c0.128-0.631,0.197-1.281,0.197-1.92  c0-0.64-0.069-1.291-0.197-1.92C235.993,371.604,235.795,370.982,235.549,370.393z" data-original="#000000" class="" style="fill:#000000" data-old_color="#000000"/></g> </svg>
